<?xml version="1.0" standalone="no"?>
<!DOCTYPE svg PUBLIC "-//W3C//DTD SVG 20010904//EN"
 "http://www.w3.org/TR/2001/REC-SVG-20010904/DTD/svg10.dtd">
<svg version="1.0" xmlns="http://www.w3.org/2000/svg"
 width="260.000000pt" height="260.000000pt" viewBox="0 0 260.000000 260.000000"
 preserveAspectRatio="xMidYMid meet">
<metadata>
Created by potrace 1.11, written by Peter Selinger 2001-2013
</metadata>
<g transform="translate(0.000000,260.000000) scale(0.100000,-0.100000)"
fill="#000000" stroke="none">
<path d="M1070 2584 c-179 -32 -349 -97 -488 -187 -62 -40 -74 -44 -105 -38
-71 17 -127 -30 -135 -111 -4 -47 -13 -63 -67 -131 -115 -144 -203 -329 -246
-517 -26 -112 -33 -341 -13 -465 85 -549 533 -987 1085 -1060 540 -72 1070
215 1309 710 47 96 96 242 106 315 18 135 21 173 18 259 -5 179 -30 296 -94
457 -101 248 -299 474 -535 611 -124 73 -238 116 -390 150 -94 20 -347 25
-445 7z m345 -108 c159 -18 337 -84 485 -182 270 -178 450 -454 505 -773 15
-86 15 -325 1 -396 -75 -358 -297 -656 -613 -817 -170 -88 -330 -126 -523
-126 -245 0 -442 60 -645 196 -525 352 -667 1057 -319 1582 89 135 110 156
163 163 55 7 99 47 107 99 6 32 15 43 68 77 143 94 345 165 501 177 39 4 71 7
72 8 5 4 137 -1 198 -8z"/>
<path d="M1170 2298 c-145 -15 -331 -83 -457 -169 -26 -18 -84 -69 -129 -113
-189 -191 -285 -423 -285 -694 0 -57 2 -106 5 -110 2 -4 7 -29 11 -57 13 -101
79 -263 148 -365 79 -116 204 -233 317 -297 30 -17 50 -35 50 -45 0 -10 12
-32 28 -48 34 -39 95 -50 141 -27 26 13 40 13 103 2 96 -17 284 -12 378 10
257 59 490 229 624 455 92 156 138 337 131 520 -4 131 -7 144 -41 259 -131
434 -568 724 -1024 679z m299 -109 c349 -81 616 -372 672 -732 15 -94 6 -252
-20 -349 -80 -307 -321 -546 -635 -631 -111 -30 -385 -31 -414 -2 -7 7 -8 12
-11 40 0 8 -13 29 -28 45 -39 43 -96 51 -152 19 l-41 -23 -67 47 c-57 38 -123
99 -190 171 -33 36 -107 164 -134 231 -148 370 -28 792 295 1035 118 89 295
158 430 167 39 3 72 6 74 8 8 7 149 -9 221 -26z"/>
<path d="M1112 2001 c-123 -31 -234 -92 -322 -180 -149 -147 -215 -317 -206
-525 23 -501 560 -803 1011 -568 106 55 229 182 283 292 85 172 100 346 46
518 -16 50 -16 55 0 82 23 39 23 90 1 128 -22 36 -60 54 -114 56 -30 1 -50 11
-86 41 -141 118 -258 164 -435 170 -77 3 -124 -1 -178 -14z m298 -61 c77 -17
185 -71 253 -125 53 -42 58 -49 51 -73 -14 -51 -12 -90 7 -122 21 -34 69 -59
106 -55 24 2 32 -14 53 -109 12 -55 14 -171 5 -231 -36 -214 -204 -410 -417
-485 -299 -104 -643 47 -772 341 -119 273 -24 602 223 768 141 95 327 129 491
91z"/>
<path d="M1231 1528 c-189 -34 -223 -286 -50 -376 93 -49 215 -9 266 87 50 95
13 219 -79 267 -15 8 -30 15 -33 15 -2 0 -17 4 -32 8 -16 4 -48 4 -72 -1z"/>
</g>
</svg>
