<svg width="143" height="76" xmlns="http://www.w3.org/2000/svg"><g fill="none" fill-rule="evenodd"><circle fill="#35CEFF" fill-rule="nonzero" cx="100" cy="22" r="22"/><circle fill="#35CEFF" fill-rule="nonzero" cx="49" cy="50" r="22"/><g style="mix-blend-mode:multiply"><path d="M107.44 18.4c-.872.26-7.793 2.906-7.596 3.565.196.66 7.873-1.048 8.746-1.308l13.52-4.032-.71-2.388-13.96 4.163z" fill="#000"/><path d="M102.108 19.614c-1.03.308-1.692.991-1.359 2.11.333 1.118 1.303 1.418 2.333 1.11l24.147-6.802-1.206-4.05-23.915 7.632z" fill="#000"/><path d="M142.528 21.31s-2.478-.778-7.176-4.147c-4.697-3.37-6.991-5.592-9.876-8.183-2.886-2.593-3.737-2.778-5.956-2.482-2.22.297-10.47 3.96-11.892 4.587-1.424.629-2.601 3.116-3.413 4.39-.811 1.275-3.19 3.025-3.19 3.025s-.71 1.611 1.539 2.148c2.248.536 6.148-3.161 6.356-4.008 1.062.436 4.472-1.139 4.472-1.139s1.319-.116 2.65 2.402c1.332 2.518-.85 3.444-1.923 3.703-1.072.26-1.997-.592-3.957.333-3.034-3.258-5.467-2.457-6.679-.031 0 0 2.425 1.18 2.46 2.845.039 1.667.52 2.815 1.74 2.851 1.22.038 5.955.556 10.357 1.556 4.402 1 7.916 1.629 11.097.963 3.182-.667 5.586.629 8.583 2.222" fill="#FFF"/><path d="M142.528 21.31s-2.478-.778-7.176-4.147c-4.697-3.37-6.991-5.592-9.876-8.183-2.886-2.593-3.737-2.778-5.956-2.482-2.22.297-10.47 3.96-11.892 4.587-1.424.629-2.601 3.116-3.413 4.39-.811 1.275-3.19 3.025-3.19 3.025s-.71 1.611 1.539 2.148c2.248.536 6.148-3.161 6.356-4.008 1.062.436 4.472-1.139 4.472-1.139s1.319-.116 2.65 2.402c1.332 2.518-.85 3.444-1.923 3.703-1.072.26-1.997-.592-3.957.333-3.034-3.258-5.467-2.457-6.679-.031 0 0 2.425 1.18 2.46 2.845.039 1.667.52 2.815 1.74 2.851 1.22.038 5.955.556 10.357 1.556 4.402 1 7.916 1.629 11.097.963 3.182-.667 5.586.629 8.583 2.222" stroke="#000" stroke-width=".781"/><path d="M111.106 15.872c-1.066.318-1.592 1.712-1.175 3.114.417 1.401 1.62 2.28 2.686 1.962l24.847-7.41-1.51-5.076-24.848 7.41z" fill="#000"/><path d="M138.64 10.424c.416 1.403-.11 2.796-1.176 3.114-1.066.318-2.268-.56-2.685-1.962-.418-1.402.109-2.796 1.174-3.114 1.066-.318 2.27.56 2.687 1.962M35.205 54.787c.872-.26 7.793-2.905 7.597-3.565-.196-.66-7.873 1.048-8.745 1.309l-13.523 4.032.71 2.387 13.961-4.163z" fill="#000"/><path d="M40.538 53.573c1.03-.308 1.691-.991 1.358-2.11-.332-1.118-1.302-1.418-2.332-1.11l-24.146 6.803 1.205 4.05 23.915-7.633z" fill="#000"/><path d="M.118 51.878s2.478.777 7.175 4.146c4.698 3.37 6.992 5.592 9.878 8.184 2.884 2.592 3.735 2.777 5.955 2.481 2.22-.296 10.47-3.959 11.892-4.587 1.424-.628 2.6-3.115 3.413-4.39.811-1.274 3.19-3.025 3.19-3.025s.71-1.61-1.539-2.147c-2.249-.537-6.148 3.16-6.356 4.007-1.062-.436-4.472 1.138-4.472 1.138s-1.32.117-2.652-2.401c-1.33-2.518.852-3.443 1.925-3.703 1.072-.26 1.997.592 3.957-.333 3.034 3.258 5.467 2.457 6.679.032 0 0-2.425-1.18-2.462-2.846-.037-1.666-.518-2.815-1.738-2.85-1.22-.039-5.956-.557-10.357-1.557-4.402-1-7.917-1.628-11.098-.962-3.18.667-5.585-.63-8.582-2.222" fill="#FFF"/><path d="M.118 51.878s2.478.777 7.175 4.146c4.698 3.37 6.992 5.592 9.878 8.184 2.884 2.592 3.735 2.777 5.955 2.481 2.22-.296 10.47-3.959 11.892-4.587 1.424-.628 2.6-3.115 3.413-4.39.811-1.274 3.19-3.025 3.19-3.025s.71-1.61-1.539-2.147c-2.249-.537-6.148 3.16-6.356 4.007-1.062-.436-4.472 1.138-4.472 1.138s-1.32.117-2.652-2.401c-1.33-2.518.852-3.443 1.925-3.703 1.072-.26 1.997.592 3.957-.333 3.034 3.258 5.467 2.457 6.679.032 0 0-2.425-1.18-2.462-2.846-.037-1.666-.518-2.815-1.738-2.85-1.22-.039-5.956-.557-10.357-1.557-4.402-1-7.917-1.628-11.098-.962-3.18.667-5.585-.63-8.582-2.222" stroke="#000" stroke-width=".781"/><path d="M31.54 57.316c1.065-.318 1.592-1.713 1.175-3.114-.418-1.403-1.62-2.281-2.686-1.963l-24.847 7.41 1.51 5.076 24.848-7.41z" fill="#000"/><path d="M4.007 62.763c-.418-1.402.108-2.796 1.174-3.114 1.066-.318 2.269.56 2.686 1.962.417 1.403-.109 2.797-1.175 3.115-1.066.318-2.268-.56-2.685-1.963" fill="#000"/><path fill="#FFF" d="M45.356 53.819l21.13 21.151.01-.01.012.01"/><path stroke="#000" stroke-width=".781" d="M45.356 53.819l21.13 21.151.01-.01.012.01"/><g><path fill="#FFF" d="M97.494 24.108l-30.997 31.03-13.78-13.793-2.004 2.006-7.907 7.915"/><path stroke="#000" stroke-width=".781" d="M97.494 24.108l-30.997 31.03-13.78-13.793-2.004 2.006-7.907 7.915"/></g><g><path fill="#FFF" d="M99.628 21.972l9.912 9.922L69.455 72.02l-2.958 2.94"/><path stroke="#000" stroke-width=".781" d="M99.628 21.972l9.912 9.922L69.455 72.02l-2.958 2.94"/></g></g></g></svg>