<svg width="89" height="72" xmlns="http://www.w3.org/2000/svg"><path d="M79.214 20.556c0-.781-.016-1.558-.052-2.331a36.713 36.713 0 0 0 8.999-9.341 35.99 35.99 0 0 1-10.36 2.84 18.098 18.098 0 0 0 7.933-9.979A36.15 36.15 0 0 1 74.28 6.124 18.022 18.022 0 0 0 61.113.425c-9.964 0-18.042 8.078-18.042 18.037 0 1.416.159 2.792.467 4.113-14.991-.754-28.285-7.933-37.182-18.847a17.983 17.983 0 0 0-2.443 9.067 18.027 18.027 0 0 0 8.028 15.016 17.91 17.91 0 0 1-8.17-2.258c-.004.076-.004.152-.004.231 0 8.737 6.219 16.031 14.472 17.684a18.055 18.055 0 0 1-8.147.31c2.297 7.166 8.956 12.382 16.853 12.529A36.198 36.198 0 0 1 4.54 64.029c-1.455 0-2.891-.083-4.303-.25a51.072 51.072 0 0 0 27.652 8.102c33.18 0 51.325-27.489 51.325-51.325z" fill="#4591C2" fill-rule="evenodd"/></svg>