<svg width="60" height="95" xmlns="http://www.w3.org/2000/svg"><g fill="none" fill-rule="evenodd"><circle fill="#35CEFF" fill-rule="nonzero" cx="24" cy="35" r="22"/><g style="mix-blend-mode:multiply"><path fill="#000" d="M.415 57.215v29.919l23.763-7.238v-29.92z"/><path stroke="#000" stroke-width=".833" stroke-linejoin="round" d="M.415 87.134l23.762-7.238V49.977L.415 57.215z"/><path fill="#000" d="M47.94 87.134l-23.762-7.238V49.977l23.763 7.238z"/><path stroke="#000" stroke-width=".833" stroke-linejoin="round" d="M47.94 87.134l-23.762-7.238V49.977l23.763 7.238z"/><path d="M52.839 1.264s-2.355 1.814-8.578 3.994c-6.223 2.178-9.798 2.86-14.107 3.851-4.308.992-5.04 1.669-6.224 3.952-1.185 2.284-3.675 11.88-4.136 13.61-.463 1.729 1.32 4.821 2.046 6.397.726 1.577.949 4.97.949 4.97s1.112 1.684 3.005-.167c1.892-1.85.733-7.924.048-8.65 1.07-.76 1.99-4.525 1.99-4.525s1.195-1.212 4.412-.792c3.218.42 2.642 3.088 2.177 4.268-.465 1.18-3.488 2.544-3.4 5.038-4.773 1.731-5.03 4.67-3.037 7.053 0 0 2.214-1.633 4.086-1.314 1.65.282 4.27-.703 4.858-1.979.587-1.274 3.27-3.993 7.095-7.468 3.827-3.475 6.724-6.36 8.198-9.795 1.473-3.434 4.26-4.834 7.712-6.593" fill="#FFF"/><path d="M52.839 1.264s-2.355 1.814-8.578 3.994c-6.223 2.178-9.798 2.86-14.107 3.851-4.308.992-5.04 1.669-6.224 3.952-1.185 2.284-3.675 11.88-4.136 13.61-.463 1.729 1.32 4.821 2.046 6.397.726 1.577.949 4.97.949 4.97s1.112 1.684 3.005-.167c1.892-1.85.733-7.924.048-8.65 1.07-.76 1.99-4.525 1.99-4.525s1.195-1.212 4.412-.792c3.218.42 2.642 3.088 2.177 4.268-.465 1.18-3.488 2.544-3.4 5.038-4.773 1.731-5.03 4.67-3.037 7.053 0 0 2.214-1.633 4.086-1.314 1.65.282 4.27-.703 4.858-1.979.587-1.274 3.27-3.993 7.095-7.468 3.827-3.475 6.724-6.36 8.198-9.795 1.473-3.434 4.26-4.834 7.712-6.593" stroke="#000" stroke-width=".9" stroke-linejoin="round"/><path d="M22.375 63.704c-.1-1.704-.455-3.61-.927-5.398-.472-1.788-1.062-3.695-9.083-8.105-8.022-4.41-8.022-3.098-7.432-1.191.59 1.907.879 8.939 7.99 10.488 7.11 1.549 5.813 9.057 5.813 9.057" fill="#FFF"/><path d="M22.375 63.704c-.1-1.704-.455-3.61-.927-5.398-.472-1.788-1.062-3.695-9.083-8.105-8.022-4.41-8.022-3.098-7.432-1.191.59 1.907.879 8.939 7.99 10.488 7.11 1.549 5.813 9.057 5.813 9.057" stroke="#000" stroke-width="1.007" stroke-linejoin="round"/><path d="M7.338 50.832c0-.536.212-1.503 2.976 0 2.764 1.504 7.442 4.246 8.4 7.064.956 2.818 1.383 2.818 1.33 7.115" fill="#FFF"/><path d="M7.338 50.832c-.02-.226.002-.485.18-.678.19-.182.458-.22.695-.217.485.019.938.169 1.378.33.868.364 1.672.8 2.493 1.23 1.627.877 3.201 1.883 4.62 3.125.697.634 1.364 1.328 1.867 2.173.248.408.444.922.572 1.339l.44 1.31c.31.874.542 1.834.57 2.773a22.48 22.48 0 0 1-.11 2.794c-.14-1.856-.203-3.712-.997-5.362-.394-.835-.624-1.786-1.079-2.48-.46-.736-1.087-1.388-1.758-1.981-1.343-1.2-2.873-2.206-4.413-3.19-.772-.484-1.557-.981-2.353-1.394-.4-.205-.813-.398-1.244-.47-.212-.028-.436-.02-.605.104-.169.128-.24.366-.256.594" fill="#000"/><path fill="#FFF" d="M47.94 57.215l-23.762 7.238v29.919l23.763-7.238z"/><path stroke="#000" stroke-width=".833" stroke-linejoin="round" d="M47.94 57.215l-23.762 7.238v29.919l23.763-7.238z"/><path fill="#FFF" d="M.415 57.215l23.762 7.238v29.919L.415 87.134z"/><path stroke="#000" stroke-width=".833" stroke-linejoin="round" d="M.415 57.215l23.762 7.238v29.919L.415 87.134z"/><path d="M23.07 63.725c.575-2.34-.143-4.322-1.147-12.606-1.004-8.283 1.391-17.092 3.155-17.092 1.422 0 4.16 5.344 4.017 15.9-.144 10.556-2.296 9.837-2.152 13.798" fill="#FFF"/><path d="M23.07 63.725c.575-2.34-.143-4.322-1.147-12.606-1.004-8.283 1.391-17.092 3.155-17.092 1.422 0 4.16 5.344 4.017 15.9-.144 10.556-2.296 9.837-2.152 13.798" stroke="#000" stroke-width=".751" stroke-linejoin="round"/><g><path d="M19.794 26.67c-.463 1.73 1.32 4.823 2.046 6.399.726 1.576.95 4.968.95 4.968s1.11 1.685 3.004-.166c1.892-1.85.734-7.925.048-8.65 1.07-.76 1.99-4.526 1.99-4.526" fill="#FFF"/><path d="M19.794 26.67c-.463 1.73 1.32 4.823 2.046 6.399.726 1.576.95 4.968.95 4.968s1.11 1.685 3.004-.166c1.892-1.85.734-7.925.048-8.65 1.07-.76 1.99-4.526 1.99-4.526" stroke="#000" stroke-width=".9" stroke-linejoin="round"/></g><path d="M25.794 37.871c1.322 4.376 2.015 6.876 1.582 16.365" fill="#FFF"/><path d="M26.15 37.76c.368 1.33.74 2.672.991 4.045.255 1.372.397 2.76.453 4.146.106 2.772-.04 5.532-.218 8.285.054-2.757.074-5.523-.155-8.261a28.583 28.583 0 0 0-.628-4.052c-.307-1.33-.732-2.632-1.157-3.942l.715-.22z" fill="#000"/></g></g></svg>