<svg xmlns="http://www.w3.org/2000/svg" viewBox="0 0 152 30"><path d="M33.57 21.42l1.82-2.02a8.54 8.54 0 0 0 5.17 1.77c2.26 0 3.61-1 3.61-2.47 0-1.25-.74-2.2-2.38-2.4-.82-.1-1.46-.2-2.4-.33-3.16-.42-4.85-2.42-4.85-5 0-3.05 2.18-5.2 5.94-5.2 2.26 0 4.26.78 5.92 1.85l-1.54 2.23a8.66 8.66 0 0 0-4.5-1.38c-1.7 0-3.05.85-3.05 2.55 0 1 .74 2 2.59 2.28.48.07 1.17.17 2.05.27 3.4.4 4.99 2.7 4.99 5.13 0 3.27-2.49 5.17-6.4 5.17-2.7 0-5.05-.8-6.97-2.45m22.88 2.3v-1.13h-.05c-.54.87-1.44 1.27-3.2 1.27-2.9 0-4.59-1.67-4.59-3.87 0-2.02 1.44-3.75 4.23-3.75h3.61v-1.32c0-1.2-.8-1.63-2.67-1.63-1.35 0-2 .25-2.45.98l-2.05-1.53c1-1.34 2.43-1.84 4.38-1.84 3.2 0 5.4 1.05 5.4 4.17v8.64h-2.61m6.15-12.67V7.2h2.61v3.84h1.9V13h-1.9v7.37c0 .7.28.95.92.95h.97v2.4h-1.35c-1.82 0-3.15-1.12-3.15-3.12V13h-1.3v-1.95h1.3m6.3 6.33c0-2.73.42-3.78 1.41-4.85a5.1 5.1 0 0 1 3.95-1.62 5.1 5.1 0 0 1 3.94 1.62c1 1.07 1.4 2.12 1.4 4.85 0 2.74-.4 3.8-1.4 4.87a5.1 5.1 0 0 1-3.94 1.62 5.1 5.1 0 0 1-3.95-1.62c-1-1.08-1.4-2.13-1.4-4.87m12.01 4.22l1.82-1.75a5.51 5.51 0 0 0 4.1 1.62c1.48 0 2.56-.55 2.56-1.62 0-.9-.7-1.17-1.59-1.25l-2.3-.2c-2.16-.17-3.75-1.42-3.75-3.6 0-2.57 2.1-3.9 4.85-3.9 2.28 0 3.81.68 5.1 1.73l-1.62 1.85a5.88 5.88 0 0 0-3.48-1.18c-1.67 0-2.23.65-2.23 1.53 0 .55.4 1.1 1.71 1.2l2.16.15c2.69.17 3.76 1.77 3.76 3.8 0 2.47-2.36 3.9-5.38 3.9-2.1 0-4.04-.76-5.71-2.28m13.74 2.13V5.93h2.62v6.48h.05c.82-1 2-1.5 3.38-1.5a4.3 4.3 0 0 1 4.34 4.4v8.42h-2.62v-7.55c0-1.72-1.1-2.72-2.56-2.72-1.49 0-2.6 1-2.6 2.72v7.55h-2.6m13.83-17.8h2.61v2.55h-2.61zm0 5.13h2.61V23.7h-2.61zm27.44 12.66V22.6h-.05c-.53.87-1.43 1.27-3.2 1.27-2.9 0-4.58-1.67-4.58-3.87 0-2.02 1.43-3.75 4.22-3.75h3.61v-1.32c0-1.2-.79-1.63-2.66-1.63-1.36 0-2 .25-2.46.98l-2.05-1.53c1-1.34 2.44-1.84 4.38-1.84 3.2 0 5.4 1.05 5.4 4.17v8.64h-2.6m8.63-.49l-4.66-12.17h2.77l3.07 8.87h.05l3.07-8.87h2.77l-5.58 15.3c-.72 1.95-2.08 2.5-3.67 2.5h-.87v-2.4h.77c.67 0 1.3-.35 1.56-1.1l.72-2.13m-29.78.5V5.93h6.61c1.44 0 2.7.18 4.1 1.25a5.44 5.44 0 0 1-3.74 9.6h-4.2v6.95h-2.77m2.77-15.25v5.75h4.1c2.05 0 3.05-1.47 3.05-2.87 0-1.2-.49-1.93-1.18-2.38-.62-.4-1.18-.5-1.97-.5h-4m18.36 10.8v-.92h-3.11c-1.54 0-2.25.6-2.25 1.52 0 .84.69 1.6 2.45 1.6 2.17 0 2.91-.23 2.91-2.2m-79.48 0v-.92h-3.13c-1.53 0-2.25.6-2.25 1.52 0 .84.7 1.6 2.46 1.6 2.18 0 2.92-.23 2.92-2.2M77 17.4c0-1.85-.15-2.35-.64-3.03a2.67 2.67 0 0 0-2.1-.92c-.9 0-1.72.4-2.1.92-.49.68-.64 1.18-.64 3 0 1.85.15 2.35.64 3.03.38.52 1.2.92 2.1.92.9 0 1.72-.4 2.1-.92.49-.68.64-1.18.64-3M15.05 0c8.07 0 14.66 6.32 15.05 14.25h-6.8a8.29 8.29 0 0 0-16.5 0H0A15.04 15.04 0 0 1 15.05 0M30.1 15.75A15.04 15.04 0 0 1 15.05 30 15.04 15.04 0 0 1 0 15.75h6.8a8.29 8.29 0 0 0 16.5 0h6.8m-15.05-7.5a6.75 6.75 0 1 1 0 13.5 6.75 6.75 0 1 1 0-13.5"/></svg>