<svg width="114" height="40" xmlns="http://www.w3.org/2000/svg"><g fill="#35CEFF" fill-rule="evenodd"><text font-family="Helvetica" font-size="18.984"><tspan x="50.226" y="29.688">SOLAR</tspan></text><path d="M19.51 37.264c-9.788 0-17.752-7.964-17.752-17.753 0-4.717 1.852-9.006 4.864-12.189.14.034.285.057.436.057a1.87 1.87 0 0 0 1.87-1.87c0-.078-.013-.152-.022-.227A17.66 17.66 0 0 1 19.51 1.758c9.789 0 17.753 7.964 17.753 17.753S29.3 37.264 19.51 37.264M19.51 0A19.42 19.42 0 0 0 7.888 3.84a1.844 1.844 0 0 0-.83-.202 1.87 1.87 0 0 0-1.87 1.87c0 .225.046.436.118.635A19.436 19.436 0 0 0 0 19.511c0 10.775 8.735 19.51 19.51 19.51 10.776 0 19.512-8.735 19.512-19.51C39.022 8.736 30.286 0 19.51 0"/><path d="M19.51 33.102c-1.07 0-2.112-.129-3.112-.364.003-.039.012-.075.012-.114a1.87 1.87 0 0 0-1.87-1.87c-.599 0-1.125.285-1.467.722-4.255-2.298-7.152-6.8-7.152-11.965 0-7.494 6.096-13.59 13.59-13.59 7.493 0 13.59 6.096 13.59 13.59S27.004 33.1 19.511 33.1m0-28.526c-8.25 0-14.936 6.687-14.936 14.936 0 5.79 3.296 10.805 8.112 13.285a1.864 1.864 0 0 0 1.852 1.698c.495 0 .94-.196 1.275-.509 1.183.301 2.42.462 3.697.462 8.249 0 14.936-6.687 14.936-14.936 0-8.249-6.687-14.936-14.936-14.936"/><path d="M19.51 29.14c-5.309 0-9.628-4.32-9.628-9.63 0-5.308 4.32-9.628 9.629-9.628a9.603 9.603 0 0 1 7.052 3.082c-.24.314-.386.701-.386 1.126a1.87 1.87 0 0 0 2.264 1.827 9.564 9.564 0 0 1 .699 3.594c0 5.31-4.32 9.629-9.63 9.629m9.784-13.665a1.86 1.86 0 0 0 .623-1.385 1.87 1.87 0 0 0-2.6-1.722 10.552 10.552 0 0 0-7.806-3.44c-5.845 0-10.583 4.739-10.583 10.583s4.738 10.582 10.583 10.582c5.844 0 10.582-4.738 10.582-10.582 0-1.43-.285-2.792-.799-4.036"/><path d="M19.51 16.386a3.125 3.125 0 1 0 0 6.25 3.125 3.125 0 0 0 0-6.25"/></g></svg>