<svg width="67" height="79" xmlns="http://www.w3.org/2000/svg"><g fill="none" fill-rule="evenodd"><circle fill="#35CEFF" fill-rule="nonzero" cx="45" cy="22" r="22"/><g style="mix-blend-mode:multiply"><path d="M26.57 29.832c13.319 0 24.117-2.09 24.119-4.669-.06-.193-.121-.38-.182-.566-1.442-2.312-11.605-4.105-23.937-4.105-12.013 0-21.972 1.701-23.811 3.927-.106.248-.204.51-.304.765.06 2.57 10.834 4.648 24.115 4.648" fill="#000"/><path d="M26.57 29.832c13.319 0 24.117-2.09 24.119-4.669-.06-.193-.121-.38-.182-.566-1.442-2.312-11.605-4.105-23.937-4.105-12.013 0-21.972 1.701-23.811 3.927-.106.248-.204.51-.304.765.06 2.57 10.834 4.648 24.115 4.648z" stroke="#000" stroke-width=".913" stroke-linejoin="round"/><path d="M15.93 24.003a.584.584 0 0 1-.43-.19L5.504 12.81a.584.584 0 0 1-.092-.645l1.594-3.26a.582.582 0 0 1 .522-.325c.014 0 14.865 1.127 14.865 1.127a.58.58 0 0 1 .477.833l-1.925 3.941a.58.58 0 0 1-.522.325h-.032c-1.356-.077-2.692-.17-4.009-.28-.832-.069-1.67-.132-2.516-.188l4.434 4.697a.582.582 0 0 1 .1.653l-1.95 3.99a.578.578 0 0 1-.522.325" fill="#FFF"/><path d="M7.528 8c-.44 0-.846.25-1.042.651l-1.593 3.26a1.16 1.16 0 0 0 .183 1.289l4.998 5.502c1.659 1.826 3.325 3.659 4.996 5.501a1.162 1.162 0 0 0 1.902-.27l1.95-3.991a1.16 1.16 0 0 0-.2-1.305l-2.72-2.883-.692-.731c.345.026.687.053 1.025.081 1.323.11 2.676.205 4.023.281l.066.002c.442 0 .847-.251 1.042-.651l1.927-3.941a1.162 1.162 0 0 0-.955-1.667c-2.48-.187-4.95-.374-7.41-.562l-7.412-.563A1.293 1.293 0 0 0 7.528 8m0 1.16l7.41.563 7.412.563-1.926 3.941a155.11 155.11 0 0 1-3.993-.279 150.477 150.477 0 0 0-3.993-.278c.913.968 1.819 1.929 2.72 2.881l2.722 2.882-1.951 3.99a9814.964 9814.964 0 0 0-4.997-5.501c-1.66-1.826-3.325-3.66-4.997-5.502l1.594-3.26" fill="#000"/><path d="M20.49 28.975a.579.579 0 0 1-.395-.156l-3.248-3.034a.579.579 0 0 1 .002-.85L33.47 9.608a.585.585 0 0 1 .79.002l3.273 3.046a.583.583 0 0 1-.003.852L20.884 28.822a.581.581 0 0 1-.393.153" fill="#FFF"/><path d="M33.865 8.876c-.282 0-.564.102-.786.307L16.457 24.509a1.157 1.157 0 0 0-.006 1.7l3.248 3.035a1.159 1.159 0 0 0 1.577.006l16.648-15.314a1.162 1.162 0 0 0 .004-1.704l-3.272-3.045a1.16 1.16 0 0 0-.791-.311m0 1.16l3.273 3.047L20.49 28.395l-3.248-3.035 16.622-15.325" fill="#000"/><path d="M30.75 31.266a.582.582 0 0 1-.479-.833l1.951-3.99a.58.58 0 0 1 .521-.326c.018 0 6.485.616 6.485.616a142.219 142.219 0 0 0-1.694-1.869c-.895-.973-1.79-1.97-2.682-2.992a.576.576 0 0 1-.085-.636l1.925-3.94a.58.58 0 0 1 .953-.136l9.993 11.002a.584.584 0 0 1 .092.646l-1.593 3.26a.582.582 0 0 1-.523.325c-.014 0-14.864-1.127-14.864-1.127" fill="#FFF"/><path d="M37.214 16.39a1.16 1.16 0 0 0-1.043.65l-1.926 3.942c-.205.419-.138.92.17 1.273a155.234 155.234 0 0 0 2.694 3.003l.693.757-1.002-.096c-1.307-.125-2.622-.251-3.948-.376a1.162 1.162 0 0 0-1.152.645l-1.95 3.99a1.16 1.16 0 0 0 .955 1.667c2.481.187 4.95.375 7.41.563 2.46.187 4.931.375 7.412.562.03.003.06.003.088.003.44 0 .846-.25 1.041-.65l1.594-3.261a1.16 1.16 0 0 0-.183-1.29l-4.998-5.501c-1.66-1.825-3.325-3.66-4.997-5.501a1.158 1.158 0 0 0-.858-.38m0 1.16a46569.27 46569.27 0 0 1 9.994 11.003l-1.594 3.26c-2.48-.187-4.95-.375-7.41-.562-2.46-.188-4.93-.376-7.41-.563l1.948-3.99c1.326.125 2.641.25 3.948.376 1.303.126 2.62.25 3.944.377a149.647 149.647 0 0 0-2.673-2.98 152.857 152.857 0 0 1-2.674-2.98l1.927-3.941" fill="#000"/><path d="M36.801 77.923c-.449-1.348-.749-2.77-1.272-5.39-.525-2.622 1.422-2.772 3.893-2.472 2.471.3 6.215.823 8.162 0 1.946-.824 2.246-2.47 2.321-3.519.075-1.049-.524-2.172-.674-3.22-.15-1.048 1.05-2.77 1.647-3.969.6-1.198.6-3.369.45-4.193-.15-.823-.15-1.722 1.273-2.32 2.995-1.049 3.594-1.424 3.594-2.847 0-1.422-2.396-4.942-3.745-7.017-1.347-2.075-2.02-3.016-1.946-4.364.075-1.348 1.136-3.22 1.123-8.46-.056-1.68-.46-3.445-.938-4.99-.002 2.58-10.8 4.67-24.119 4.67-13.282 0-24.054-2.079-24.116-4.648-.89 2.271-1.574 4.874-1.968 7.887-.6 15.725 11.006 19.17 11.156 30.176-.15 9.66-6.44 14.676-6.44 14.676" fill="#FFF"/><path d="M36.801 77.923c-.449-1.348-.749-2.77-1.272-5.39-.525-2.622 1.422-2.772 3.893-2.472 2.471.3 6.215.823 8.162 0 1.946-.824 2.246-2.47 2.321-3.519.075-1.049-.524-2.172-.674-3.22-.15-1.048 1.05-2.77 1.647-3.969.6-1.198.6-3.369.45-4.193-.15-.823-.15-1.722 1.273-2.32 2.995-1.049 3.594-1.424 3.594-2.847 0-1.422-2.396-4.942-3.745-7.017-1.347-2.075-2.02-3.016-1.946-4.364.075-1.348 1.136-3.22 1.123-8.46-.056-1.68-.46-3.445-.938-4.99-.002 2.58-10.8 4.67-24.119 4.67-13.282 0-24.054-2.079-24.116-4.648-.89 2.271-1.574 4.874-1.968 7.887-.6 15.725 11.006 19.17 11.156 30.176-.15 9.66-6.44 14.676-6.44 14.676" stroke="#000" stroke-width=".926" stroke-linejoin="round"/></g></g></svg>